# xmcd
#
# Track frame offsets:
#	150
#	19642
#	35435
#	55192
#
# Disc length: 942 seconds
#
# Revision: 0
# Processed by: cddbd v1.4PL0 Copyright (c) Steve Scherf et al.
# Submitted via: audiograbber 1.81.03
#
DISCID=2703ac04
DTITLE=Josh Aitken - Remember The Day
DYEAR=2001
DGENRE=Pop
TTITLE0=Monday Morning
TTITLE1=Fate
TTITLE2=Lost Boy
TTITLE3=Remember The Day
EXTD=
EXTT0=
EXTT1=
EXTT2=
EXTT3=
PLAYORDER=
